<svg width="1920" height="1080" viewBox="0 0 1920 1080" fill="none" xmlns="http://www.w3.org/2000/svg">
  <defs>
    <linearGradient id="bg" x1="0" y1="0" x2="1920" y2="1080" gradientUnits="userSpaceOnUse">
      <stop stop-color="#EEF9F6"/>
      <stop offset="0.52" stop-color="#DCF2EC"/>
      <stop offset="1" stop-color="#CBE9E2"/>
    </linearGradient>
    <radialGradient id="softA" cx="0" cy="0" r="1" gradientUnits="userSpaceOnUse" gradientTransform="translate(1504 238) rotate(136) scale(510 430)">
      <stop stop-color="#86D1C3" stop-opacity="0.58"/>
      <stop offset="1" stop-color="#86D1C3" stop-opacity="0"/>
    </radialGradient>
    <radialGradient id="softB" cx="0" cy="0" r="1" gradientUnits="userSpaceOnUse" gradientTransform="translate(1288 792) rotate(24) scale(640 440)">
      <stop stop-color="#A6DDD2" stop-opacity="0.56"/>
      <stop offset="1" stop-color="#A6DDD2" stop-opacity="0"/>
    </radialGradient>
    <linearGradient id="panel" x1="1040" y1="130" x2="1830" y2="930" gradientUnits="userSpaceOnUse">
      <stop stop-color="#FFFFFF" stop-opacity="0.92"/>
      <stop offset="1" stop-color="#F4FCF9" stop-opacity="0.95"/>
    </linearGradient>
    <linearGradient id="cta" x1="1390" y1="848" x2="1688" y2="848" gradientUnits="userSpaceOnUse">
      <stop stop-color="#0F766E"/>
      <stop offset="1" stop-color="#0B5C56"/>
    </linearGradient>
    <pattern id="grid" width="28" height="28" patternUnits="userSpaceOnUse">
      <path d="M28 0H0V28" stroke="#67B2A5" stroke-opacity="0.14"/>
    </pattern>
  </defs>

  <rect width="1920" height="1080" fill="url(#bg)"/>
  <rect width="1920" height="1080" fill="url(#grid)"/>
  <circle cx="1504" cy="238" r="510" fill="url(#softA)"/>
  <circle cx="1288" cy="792" r="500" fill="url(#softB)"/>

  <rect x="998" y="122" width="840" height="836" rx="44" fill="url(#panel)" stroke="#7FC8BA" stroke-opacity="0.36" stroke-width="3"/>

  <rect x="1042" y="170" width="746" height="86" rx="20" fill="#FFFFFF" fill-opacity="0.82"/>
  <circle cx="1094" cy="213" r="20" fill="#D8EFE9"/>
  <rect x="1130" y="196" width="230" height="15" rx="7.5" fill="#B2DBD1"/>
  <rect x="1130" y="220" width="170" height="12" rx="6" fill="#C8E8E0"/>

  <rect x="1042" y="286" width="342" height="244" rx="24" fill="#FFFFFF"/>
  <rect x="1072" y="318" width="84" height="84" rx="42" fill="#CDEAE3"/>
  <circle cx="1114" cy="348" r="18" fill="#7EBEAF"/>
  <rect x="1090" y="370" width="48" height="24" rx="12" fill="#7EBEAF"/>
  <rect x="1182" y="324" width="156" height="14" rx="7" fill="#8ACABD"/>
  <rect x="1182" y="348" width="118" height="11" rx="5.5" fill="#B9E1D8"/>
  <rect x="1182" y="374" width="102" height="11" rx="5.5" fill="#D3ECE6"/>
  <rect x="1072" y="428" width="132" height="38" rx="19" fill="#E3F4F0"/>
  <rect x="1089" y="441" width="96" height="12" rx="6" fill="#7DBCAF"/>
  <rect x="1220" y="428" width="136" height="38" rx="19" fill="#EAF7F4"/>
  <rect x="1238" y="441" width="98" height="12" rx="6" fill="#98D0C3"/>
  <rect x="1072" y="482" width="284" height="18" rx="9" fill="#CFEAE4"/>

  <rect x="1408" y="286" width="380" height="316" rx="24" fill="#FFFFFF"/>
  <rect x="1440" y="324" width="316" height="12" rx="6" fill="#9ACFC3"/>
  <rect x="1440" y="346" width="184" height="10" rx="5" fill="#C7E7E0"/>
  <rect x="1440" y="384" width="316" height="194" rx="16" fill="#F1FAF7" stroke="#C5E7DF"/>
  <path d="M1478 432H1718" stroke="#C4E6DE"/>
  <path d="M1478 470H1718" stroke="#C4E6DE"/>
  <path d="M1478 508H1718" stroke="#C4E6DE"/>
  <path d="M1526 404V562" stroke="#C4E6DE"/>
  <path d="M1574 404V562" stroke="#C4E6DE"/>
  <path d="M1622 404V562" stroke="#C4E6DE"/>
  <path d="M1670 404V562" stroke="#C4E6DE"/>
  <circle cx="1622" cy="470" r="16" fill="#0F766E"/>
  <path d="M1614 470L1620 476L1631 465" stroke="white" stroke-width="3" stroke-linecap="round" stroke-linejoin="round"/>

  <rect x="1158" y="574" width="630" height="314" rx="26" fill="#FFFFFF"/>
  <rect x="1194" y="614" width="238" height="14" rx="7" fill="#8ACBBC"/>
  <rect x="1194" y="638" width="152" height="10" rx="5" fill="#C8E8E0"/>
  <circle cx="1230" cy="708" r="38" fill="#CEEAE3"/>
  <rect x="1208" y="737" width="44" height="20" rx="10" fill="#79B9AB"/>
  <rect x="1290" y="690" width="228" height="12" rx="6" fill="#8ECDBF"/>
  <rect x="1290" y="712" width="186" height="10" rx="5" fill="#C2E5DD"/>
  <rect x="1290" y="734" width="214" height="10" rx="5" fill="#D8EEE8"/>
  <rect x="1390" y="826" width="298" height="44" rx="22" fill="url(#cta)"/>
  <rect x="1458" y="842" width="162" height="12" rx="6" fill="#D4EEE7"/>

  <g opacity="0.46" fill="#58A598">
    <rect x="1718" y="640" width="20" height="58" rx="10"/>
    <rect x="1699" y="659" width="58" height="20" rx="10"/>
    <rect x="960" y="250" width="16" height="46" rx="8"/>
    <rect x="945" y="265" width="46" height="16" rx="8"/>
  </g>
</svg>
